<svg xmlns="http://www.w3.org/2000/svg" viewBox="0 0 200 200" width="200" height="200">
  <!-- 脸 -->
  <circle cx="100" cy="100" r="80" fill="#f5d0c0"/>
  
  <!-- 星星眼 -->
  <polygon points="72,78 75,86 83,86 77,91 79,99 72,94 65,99 67,91 61,86 69,86" fill="#333"/>
  <polygon points="128,78 131,86 139,86 133,91 135,99 128,94 121,99 123,91 117,86 125,86" fill="#333"/>
  
  <!-- 腮红（完全保留原样） -->
  <circle cx="65" cy="110" r="12" fill="#f5c5b9" opacity="0.8"/>
  <circle cx="135" cy="110" r="12" fill="#f5c5b9" opacity="0.8"/>
  
  <!-- 开心的嘴巴 -->
  <path d="M 78 115 Q 100 140 122 115 Q 100 125 78 115 Z" fill="#333"/>
</svg>